<svg width="39" height="56" viewBox="0 0 39 56" fill="none" xmlns="http://www.w3.org/2000/svg">
<path d="M1.85071 41.9268H19.291H36.7313" stroke="#7EB693" stroke-width="2" stroke-miterlimit="10"/>
<path d="M5.79102 48.3574H19.291H32.791" stroke="#7EB693" stroke-width="2" stroke-miterlimit="10"/>
<path d="M18.791 1.35742V8.35742V15.3574" stroke="#7EB693" stroke-width="2" stroke-miterlimit="10"/>
<path d="M18.8656 14.6426V41.0742" stroke="#7EB693" stroke-width="2" stroke-miterlimit="10"/>
<path d="M29.9253 4.41016L18.8656 15.4944" stroke="#7EB693" stroke-width="2" stroke-miterlimit="10"/>
<path d="M34.179 8.67383L18.8656 24.0212" stroke="#7EB693" stroke-width="2" stroke-miterlimit="10"/>
<path d="M36.7313 15.4941L18.8656 32.5468" stroke="#7EB693" stroke-width="2" stroke-miterlimit="10"/>
<path d="M37.582 23.1689L18.8656 41.9268" stroke="#7EB693" stroke-width="2" stroke-miterlimit="10"/>
<path d="M37.5821 31.6943L27.3731 41.9259" stroke="#7EB693" stroke-width="2" stroke-miterlimit="10"/>
<path d="M1 31.6943L11.209 41.9259" stroke="#7EB693" stroke-width="2" stroke-miterlimit="10"/>
<path d="M8.65668 4.41016L18.8656 15.4944" stroke="#7EB693" stroke-width="2" stroke-miterlimit="10"/>
<path d="M4.40295 8.67383L18.8656 24.0212" stroke="#7EB693" stroke-width="2" stroke-miterlimit="10"/>
<path d="M1.85071 14.6426L18.8656 32.5479" stroke="#7EB693" stroke-width="2" stroke-miterlimit="10"/>
<path d="M1 22.3154L18.8657 41.0733" stroke="#7EB693" stroke-width="2" stroke-miterlimit="10"/>
<path d="M19.291 54.7158C9.19019 54.7158 1 46.2635 1 35.8351V19.8806C1 9.45419 9.19019 1 19.291 1C29.3937 1 37.5821 9.45419 37.5821 19.8806V35.8351C37.5839 46.2635 29.3937 54.7158 19.291 54.7158Z" stroke="#7EB693" stroke-width="2" stroke-miterlimit="10"/>
</svg>
